<svg width="800" height="800" xmlns="http://www.w3.org/2000/svg">
 <g>
  <title>Layer 1</title>
  <g id="svg_94">
   <g id="svg_61">
    <g id="svg_15">
     <g id="svg_1">
      <rect fill="#00b4ff" x="590" y="610" width="83" height="55" id="svg_4"/>
      <rect fill="#00b4ff" x="390" y="610.5" width="83" height="55" id="svg_5"/>
      <rect fill="#00b4ff" x="490" y="610.5" width="83" height="55" id="svg_7"/>
      <rect fill="#00b4ff" x="290" y="610" width="83" height="55" id="svg_8"/>
      <rect fill="#00b4ff" x="90" y="610.5" width="83" height="55" id="svg_9"/>
      <rect fill="#00b4ff" x="190" y="610.5" width="83" height="55" id="svg_10"/>
     </g>
     <g id="svg_14">
      <rect fill="#00b4ff" x="640" y="540" width="83" height="55" id="svg_2"/>
      <rect fill="#00b4ff" x="440" y="540.5" width="83" height="55" id="svg_3"/>
      <rect fill="#00b4ff" x="540" y="540.5" width="83" height="55" id="svg_6"/>
      <rect fill="#00b4ff" x="340" y="540" width="83" height="55" id="svg_11"/>
      <rect fill="#00b4ff" x="140" y="540.5" width="83" height="55" id="svg_12"/>
      <rect fill="#00b4ff" x="240" y="540.5" width="83" height="55" id="svg_13"/>
     </g>
    </g>
    <g id="svg_30">
     <g id="svg_22">
      <rect fill="#00b4ff" x="590" y="470" width="83" height="55" id="svg_16"/>
      <rect fill="#00b4ff" x="390" y="470.5" width="83" height="55" id="svg_17"/>
      <rect fill="#00b4ff" x="490" y="470.5" width="83" height="55" id="svg_18"/>
      <rect fill="#00b4ff" x="290" y="470" width="83" height="55" id="svg_19"/>
      <rect fill="#00b4ff" x="90" y="470.5" width="83" height="55" id="svg_20"/>
      <rect fill="#00b4ff" x="190" y="470.5" width="83" height="55" id="svg_21"/>
     </g>
     <g id="svg_29">
      <rect fill="#00b4ff" x="640" y="400" width="83" height="55" id="svg_23"/>
      <rect fill="#00b4ff" x="440" y="400.5" width="83" height="55" id="svg_24"/>
      <rect fill="#00b4ff" x="540" y="400.5" width="83" height="55" id="svg_25"/>
      <rect fill="#00b4ff" x="340" y="400" width="83" height="55" id="svg_26"/>
      <rect fill="#00b4ff" x="140" y="400.5" width="83" height="55" id="svg_27"/>
      <rect fill="#00b4ff" x="240" y="400.5" width="83" height="55" id="svg_28"/>
     </g>
    </g>
   </g>
   <g id="svg_92">
    <g id="svg_76">
     <g id="svg_68">
      <rect fill="#00b4ff" x="590" y="330" width="83" height="55" id="svg_62"/>
      <rect fill="#00b4ff" x="390" y="330.5" width="83" height="55" id="svg_63"/>
      <rect fill="#00b4ff" x="490" y="330.5" width="83" height="55" id="svg_64"/>
      <rect fill="#00b4ff" x="290" y="330" width="83" height="55" id="svg_65"/>
      <rect fill="#00b4ff" x="90" y="330.5" width="83" height="55" id="svg_66"/>
      <rect fill="#00b4ff" x="190" y="330.5" width="83" height="55" id="svg_67"/>
     </g>
     <g id="svg_75">
      <rect fill="#00b4ff" x="640" y="260" width="83" height="55" id="svg_69"/>
      <rect fill="#00b4ff" x="440" y="260.5" width="83" height="55" id="svg_70"/>
      <rect fill="#00b4ff" x="540" y="260.5" width="83" height="55" id="svg_71"/>
      <rect fill="#00b4ff" x="340" y="260" width="83" height="55" id="svg_72"/>
      <rect fill="#00b4ff" x="140" y="260.5" width="83" height="55" id="svg_73"/>
      <rect fill="#00b4ff" x="240" y="260.5" width="83" height="55" id="svg_74"/>
     </g>
    </g>
    <g id="svg_91">
     <g id="svg_83">
      <rect fill="#00b4ff" x="590" y="190" width="83" height="55" id="svg_77"/>
      <rect fill="#00b4ff" x="390" y="190.5" width="83" height="55" id="svg_78"/>
      <rect fill="#00b4ff" x="490" y="190.5" width="83" height="55" id="svg_79"/>
      <rect fill="#00b4ff" x="290" y="190" width="83" height="55" id="svg_80"/>
      <rect fill="#00b4ff" x="90" y="190.5" width="83" height="55" id="svg_81"/>
      <rect fill="#00b4ff" x="190" y="190.5" width="83" height="55" id="svg_82"/>
     </g>
     <g id="svg_90">
      <rect fill="#00b4ff" x="640" y="120" width="83" height="55" id="svg_84"/>
      <rect fill="#00b4ff" x="440" y="120.5" width="83" height="55" id="svg_85"/>
      <rect fill="#00b4ff" x="540" y="120.5" width="83" height="55" id="svg_86"/>
      <rect fill="#00b4ff" x="340" y="120" width="83" height="55" id="svg_87"/>
      <rect fill="#00b4ff" x="140" y="120.5" width="83" height="55" id="svg_88"/>
      <rect fill="#00b4ff" x="240" y="120.5" width="83" height="55" id="svg_89"/>
     </g>
    </g>
   </g>
  </g>
 </g>

</svg>